<?xml version="1.0" standalone="no"?>
<!DOCTYPE svg PUBLIC "-//W3C//DTD SVG 20010904//EN"
 "http://www.w3.org/TR/2001/REC-SVG-20010904/DTD/svg10.dtd">
<svg version="1.0" xmlns="http://www.w3.org/2000/svg"
 width="492.000000pt" height="384.000000pt" viewBox="0 0 492.000000 384.000000"
 preserveAspectRatio="xMidYMid meet">

<g transform="translate(0.000000,384.000000) scale(0.100000,-0.100000)"
fill="#EB1616" stroke="none">
<path d="M121 3662 c-22 -10 -44 -34 -58 -61 l-23 -45 2 -1620 3 -1621 23 -51
c27 -60 89 -123 152 -156 l45 -23 2235 -3 c2167 -2 2236 -2 2270 17 68 36 75
61 75 281 0 188 -1 196 -24 234 -14 21 -39 44 -57 52 -28 12 -358 14 -2074 14
l-2040 0 -2 1448 -3 1447 -24 39 c-37 60 -63 66 -278 66 -159 0 -193 -3 -222
-18z"/>
<path d="M2660 3371 c-73 -24 -127 -71 -459 -405 -195 -196 -357 -356 -360
-356 -3 0 -107 102 -231 226 -124 124 -237 232 -252 240 -70 37 -106 15 -289
-172 -85 -87 -128 -138 -131 -158 -14 -70 -2 -84 364 -452 243 -244 365 -360
401 -380 46 -26 62 -29 142 -29 80 0 96 3 142 29 36 20 159 137 404 382 194
195 355 353 358 352 3 -2 158 -156 343 -343 l338 -341 -165 -164 c-209 -209
-225 -239 -190 -358 18 -61 63 -115 116 -143 37 -18 64 -19 641 -19 569 0 605
1 638 19 19 10 44 34 55 52 19 33 20 55 23 609 2 408 0 590 -8 628 -28 128
-184 208 -308 157 -23 -10 -100 -79 -205 -183 l-167 -167 -468 467 c-324 323
-481 473 -512 489 -49 24 -173 36 -220 20z"/>
</g>
</svg>
